<svg xmlns="http://www.w3.org/2000/svg" width="35.217" height="35.216" viewBox="0 0 35.217 35.216"><g transform="translate(-0.781 -0.783)"><path d="M3.761,17.191c-.394.911-.8,1.852-1.137,2.8a29.819,29.819,0,0,0-1.84,9.577A2.053,2.053,0,0,0,1.375,31.1a5.7,5.7,0,0,0,3.842,1.829c2.652.156,5.266.531,7.473.877,1.4.22,2.54.36,3.585.44a12.025,12.025,0,0,0,4.539-.712c.523-.169,1.029-.348,1.566-.541.24-.084.482-.169.727-.259l.077-.027.347.885q.358.914.717,1.821c.194.5.314.575.85.575h4.7c1.786,0,3.593,0,5.379.008h.008a.8.8,0,0,0,.81-.423V17.655a.81.81,0,0,0-.6-.441h-.006a.82.82,0,0,0-.612.435l-.013.019c-.067.1-.137.2-.214.294a8.3,8.3,0,0,1-3.616,2.456.988.988,0,0,1-.93-.065,8.7,8.7,0,0,0-4.571-1.183c-.364.011-.722.047-1.1.084-.169.018-.346.035-.523.051l-.058.005-.185-.377a4.765,4.765,0,0,0-9.022,2.538c.007.1-.017.311-.133.367-.428.208-.855.4-1.307.6l-.4.178-.111.05-.008-.122c0-.058-.007-.115-.01-.169-.007-.117-.014-.231-.023-.345a34.721,34.721,0,0,1,.224-8.589,11.953,11.953,0,0,1,1.507-4.4,1.118,1.118,0,0,1,.784-.556,6.408,6.408,0,0,1,2.639-.023c.38.084.76.192,1.13.295.4.113.819.231,1.233.317a2.221,2.221,0,0,0,1.8-.338,2.059,2.059,0,0,0,.818-1.483,3.229,3.229,0,0,0-.085-.9c-.028-.15-.057-.306-.078-.465l-.008-.057.051-.028a1.28,1.28,0,0,0,.707-1.361,2.736,2.736,0,0,0-.242-.827A5.5,5.5,0,0,0,20.042.783h-1.5L18.489.8a.72.72,0,0,1-.174.045A12.615,12.615,0,0,0,11.493,3.6c-.169.139-.338.292-.5.439a6.464,6.464,0,0,1-.821.676A3.642,3.642,0,0,0,8.53,6.881a23.978,23.978,0,0,1-.89,2.436c-.131.322-.266.655-.393.984a.627.627,0,0,0,.281.856.592.592,0,0,0,.825-.345c.454-1.156.968-2.467,1.41-3.764a2.028,2.028,0,0,1,.791-1.1,7.635,7.635,0,0,0,.91-.7,11.666,11.666,0,0,1,8.052-3.237.941.941,0,0,1,.439.085,4.4,4.4,0,0,1,2.036,2.2.5.5,0,0,1-.179.676,1.434,1.434,0,0,0-.123.093.609.609,0,0,1-.724.148,1.686,1.686,0,0,1-.782-1,.578.578,0,0,0-.767-.4.6.6,0,0,0-.381.783A2.545,2.545,0,0,0,21,6.482a.533.533,0,0,1,.468.551.795.795,0,0,1-.268.661,1,1,0,0,1-.853.185,9.923,9.923,0,0,1-.984-.268c-.169-.052-.338-.1-.512-.152a7.415,7.415,0,0,0-4.627.038,1.4,1.4,0,0,0-.654.48A11.716,11.716,0,0,0,12.54,9.785a18.425,18.425,0,0,0-1.26,5.841,42.283,42.283,0,0,0,.27,8.592,2.162,2.162,0,0,1-.9,2.2.605.605,0,0,0-.216.895.614.614,0,0,0,.918.1A3.235,3.235,0,0,0,12.8,24.435c0-.057,0-.349.139-.433.473-.281.962-.549,1.437-.809l.444-.243.075-.042.041.077a4.719,4.719,0,0,0,5.226,2.7c2.541-.573,3.858-2.273,3.917-5.054v-.067l.066-.014a7.161,7.161,0,0,1,2.609-.062,8.143,8.143,0,0,1,3.155,1.232.743.743,0,0,0,.734.1c.216-.09.438-.177.652-.261a16.1,16.1,0,0,0,1.5-.647,13.359,13.359,0,0,0,1.282-.793c.182-.122.37-.253.558-.369l.13-.084V34.754l-.071.011-.044.008a.347.347,0,0,1-.065.008H32.59c-2.292,0-4.661,0-6.992.008a.4.4,0,0,1-.412-.318c-.358-.93-.728-1.866-1.044-2.662-.216-.548-.473-.652-1.055-.429l-.363.14c-.852.328-1.733.667-2.619.946a9.616,9.616,0,0,1-3.832.559c-1.548-.159-3.1-.389-4.685-.629a59.772,59.772,0,0,0-6.092-.662,4.648,4.648,0,0,1-3.163-1.415,1.17,1.17,0,0,1-.314-.792c.03-.845.079-1.836.213-2.828a33.355,33.355,0,0,1,2.544-8.868c.1-.225.2-.45.306-.668.118-.253.24-.514.351-.774a.654.654,0,0,0-.026-.6.581.581,0,0,0-.458-.278.616.616,0,0,0-.658.444C4.118,16.367,3.936,16.786,3.761,17.191Zm18.02,6.323A3.5,3.5,0,0,1,19.3,24.553h-.01a3.54,3.54,0,0,1,.005-7.08H19.3a3.587,3.587,0,0,1,3.532,3.549,3.515,3.515,0,0,1-1.052,2.492Z" fill="#262626"/><path d="M5.672,13.366a.7.7,0,0,1,.7-.691.723.723,0,0,1,.684.686.694.694,0,0,1-.692.7.676.676,0,0,1-.691-.7Z" fill="#262626"/><path d="M23.02,14.455l.009-.125c.029-.374.058-.761.073-1.143a.43.43,0,0,1,.118-.319.389.389,0,0,1,.305-.075,7.755,7.755,0,0,0,.814.028.528.528,0,0,0,.564-.542c.03-.71.05-1.428.062-2.135a.592.592,0,0,0-.559-.664c-.335-.007-.561.247-.571.647-.008.316-.007.636-.005.946v.537h-1.2a.553.553,0,0,0-.578.542c-.058.668-.129,1.5-.186,2.3a.615.615,0,0,0,.215.531.559.559,0,0,0,.513.1A.6.6,0,0,0,23.02,14.455Z" fill="#262626"/><path d="M28.434,14.746c.321-.067.625-.13.93-.2a.719.719,0,0,0,.469-.289.566.566,0,0,0-.521-.838,1.032,1.032,0,0,0-.2.022c-.624.126-1.273.253-1.927.383a.714.714,0,0,0-.486.277.694.694,0,0,0-.057.546c.046.207.092.414.139.629l.091.411-.119.03-.5.125c-.37.093-.719.18-1.07.275a.576.576,0,0,0-.236,1.048.636.636,0,0,0,.49.059c.745-.175,1.507-.37,2.263-.581a.566.566,0,0,0,.4-.739c-.044-.206-.09-.412-.135-.623l-.09-.415L28,14.839Z" fill="#262626"/><path d="M22.749,21.021A3.445,3.445,0,1,1,19.3,17.558,3.487,3.487,0,0,1,22.749,21.021Zm-1.382.008a2.06,2.06,0,1,0-.161.8A2.072,2.072,0,0,0,21.367,21.029Z" fill="#197aff"/><path d="M21.367,21.029a2.062,2.062,0,1,1-.151-.8A2.072,2.072,0,0,1,21.367,21.029Zm-2.075.676a.689.689,0,1,0-.686-.682.716.716,0,0,0,.686.68Z" fill="#262626"/></g></svg>