<svg xmlns="http://www.w3.org/2000/svg" width="35.165" height="35.218" viewBox="0 0 35.165 35.218"><g transform="translate(-0.051 -0.782)">
    <path d="M33.6.782a.517.517,0,0,1,.173.663c-.241.677-.463,1.361-.692,2.042-.04.117-.076.235-.126.393.611,0,1.181-.016,1.75.01a.665.665,0,0,1,.48.216c.069.106,0,.354-.083.49-1.41,2.26-2.835,4.512-4.254,6.766-.13.207-.274.391-.548.281s-.253-.333-.21-.576c.266-1.519.523-3.04.782-4.559.007-.042.01-.085.017-.159h-1.35c-.409,0-.564-.2-.452-.6q.645-2.289,1.306-4.575a1.684,1.684,0,0,1,.251-.393l2.956,0Zm-2.524.779L29.931,5.593c.483,0,.906-.005,1.328,0,.391.005.531.184.461.572-.127.709-.255,1.417-.378,2.126-.057.322-.1.649-.151.969l.072.016,2.922-4.641c-.621,0-1.169.006-1.716,0-.345-.006-.494-.217-.39-.546.175-.543.361-1.081.544-1.624.1-.3.192-.6.3-.92H31.259a1.515,1.515,0,0,0-.182.016h0ZM4.589.782a.5.5,0,0,1,.187.68c-.279.785-.538,1.576-.822,2.418.6,0,1.166-.015,1.73.009.174.007.438.076.491.193a.7.7,0,0,1-.09.554q-2.1,3.363-4.23,6.7a.747.747,0,0,1-.468.316c-.246.032-.36-.222-.294-.6.145-.844.3-1.687.443-2.531l.374-2.17c-.436,0-.856.021-1.273-.01a2.48,2.48,0,0,1-.586-.192V5.8a1.8,1.8,0,0,0,.076-.188q.617-2.152,1.236-4.3A3.372,3.372,0,0,1,1.632.784Zm.6,3.853H3.59c-.5,0-.628-.188-.466-.672.212-.64.432-1.277.643-1.916.052-.157.1-.315.148-.475a.649.649,0,0,0-.108-.027c-.39,0-.78-.01-1.169,0-.677.013-.512-.115-.7.522C1.6,3.225,1.276,4.39.933,5.593h1.3c.423,0,.556.157.493.577-.048.316-.114.63-.168.945L2.181,9.3l.06.025,2.95-4.685ZM23.707,35.226V22.871h-3.23a2.893,2.893,0,0,1-1.1,2.532,2.723,2.723,0,0,1-1.82.6c-1.571-.05-2.475-1.077-2.756-3.134h-3.22V31.6c0,.47-.125.677-.4.666s-.374-.2-.374-.66c0-1.466-.006-2.933.005-4.4a.568.568,0,0,0-.28-.532q-2.38-1.66-4.748-3.338a3.084,3.084,0,0,1-1.046-4.165c1.2-2.367,2.405-4.729,3.59-7.1a2,2,0,0,1,2.149-1.244c.055.005.111,0,.17,0,.119-.466.207-.926.354-1.37a5.946,5.946,0,0,1,4.864-4.13,10.167,10.167,0,0,1,3.758.023,2.279,2.279,0,0,1,1.84,1.7.452.452,0,0,0,.253.283,3.389,3.389,0,0,1,2.6,2.519c.107.323.173.659.247.943a7.992,7.992,0,0,1,1.126.1,1.707,1.707,0,0,1,1.166.937c1.27,2.5,2.545,4.993,3.791,7.5a3.032,3.032,0,0,1-.937,3.861c-.7.522-1.42,1.006-2.129,1.51-.222.16-.433.18-.59-.063s-.053-.423.168-.576q.974-.675,1.94-1.362a2.348,2.348,0,0,0,.792-3.195c-.916-1.816-1.838-3.63-2.77-5.472L25.081,15.2c.057.12.108.23.163.338l2.26,4.47c.213.421.184.533-.2.793-.848.562-1.692,1.125-2.55,1.681a.465.465,0,0,0-.253.437q.01,6,.006,12c0,.09.011.18.02.31h5.535c.1,0,.232-.036.3.012.135.089.3.21.34.348.058.217-.108.36-.33.391a2.26,2.26,0,0,1-.308.005H5.244c-.489,0-.679-.109-.648-.4.04-.427.373-.361.649-.361H23.707ZM13.435,12.694V16.63a2.548,2.548,0,0,0,.033.41,4.25,4.25,0,0,0,8.448-.655c.006-1.031-.01-2.062.007-3.093a.714.714,0,0,0-.38-.776,1.737,1.737,0,0,1-.567-.54c-.323-.454-.612-.937-.922-1.414a19.309,19.309,0,0,1-6.619,2.132Zm-.8,2.93V12.617c0-.532.062-.577.586-.687,1.25-.266,2.507-.513,3.739-.85a7.38,7.38,0,0,0,3.033-1.463c.25-.216.5-.125.648.2.192.414.369.837.6,1.232a2.241,2.241,0,0,0,1.153,1.081c.233.083.282.267.28.493-.006.86,0,1.72,0,2.578a2.265,2.265,0,0,0,.03.261,2.088,2.088,0,0,0,.891-1.173c.117-.323-.13-.512-.222-.756a1.962,1.962,0,0,1,.3-2.063c.072-.089.166-.23.144-.315a11.7,11.7,0,0,0-.608-1.875,2.156,2.156,0,0,0-1.841-1.2c-.494-.047-.555-.1-.607-.6a1.6,1.6,0,0,0-1.353-1.4A10.858,10.858,0,0,0,16.5,6.008a6.125,6.125,0,0,0-3.25,1.34,5.68,5.68,0,0,0-1.788,3.394.772.772,0,0,0,.206.793A1.657,1.657,0,0,1,12.1,12.7a2.794,2.794,0,0,1-.423,1.358.532.532,0,0,0-.084.342A1.908,1.908,0,0,0,12.636,15.624ZM8.2,14.044c-.048.089-.088.158-.124.229Q6.738,16.918,5.4,19.565A2.328,2.328,0,0,0,6.2,22.7l4.27,3c.09.063.184.12.3.195a.843.843,0,0,0,.035-.157c0-.962.012-1.925-.008-2.884a.548.548,0,0,0-.243-.361c-.84-.577-1.693-1.131-2.541-1.695-.393-.261-.422-.366-.21-.787q1.128-2.235,2.258-4.47c.055-.109.108-.216.168-.344L8.2,14.043Zm15.935.989a2.952,2.952,0,0,1-1.327,1.239.382.382,0,0,0-.132.272,5.022,5.022,0,0,1-2.019,3.85c-.072.058-.176.144-.178.226-.016.485-.009.972-.009,1.474H22a7,7,0,0,0,1.946-.049,7.03,7.03,0,0,0,1.647-1.033l1.177-.778-2.633-5.2Zm-15.594,5.2c.66.432,1.316.815,1.909,1.274a2.764,2.764,0,0,0,2,.6c.782-.056,1.572-.013,2.391-.013a6.963,6.963,0,0,1,.005-.782,1.279,1.279,0,0,0-.53-1.25A4.78,4.78,0,0,1,12.662,16.7c-.01-.1-.052-.268-.116-.288A2.739,2.739,0,0,1,11.088,15.2Zm11.14.744a5.161,5.161,0,0,1-4.089-.025v2.072a2.881,2.881,0,0,0,.01.308,2.067,2.067,0,0,0,2,1.9,1.987,1.987,0,0,0,2.065-1.764,23.5,23.5,0,0,0,.017-2.494Zm-9.093-6.455c.25-.523.52-1,.7-1.507a1.132,1.132,0,0,0-.653-1.357,1.154,1.154,0,0,0-1.427.4c-.249.4-.444.84-.677,1.288Zm16.178-1.165-.522-1.044a2.389,2.389,0,0,0-.117-.21,1.181,1.181,0,0,0-1.412-.462A1.118,1.118,0,0,0,24,12.968a14.892,14.892,0,0,0,.716,1.559Z" fill="#262626"/>
    <path d="M2.221,31.523c-.38,0-.557-.309-.4-.563a1.26,1.26,0,0,1,.206-.225l3.67-3.672c.056-.056.112-.152.174-.158.165-.014.395-.05.483.038s.05.318.037.482c-.006.063-.1.12-.157.176l-3.7,3.689a2.247,2.247,0,0,1-.313.233Zm31.385-.394c-.1.14-.151.288-.252.34a.607.607,0,0,1-.385-.01c-.078-.02-.14-.112-.205-.176l-3.7-3.695c-.065-.065-.17-.132-.176-.2a.679.679,0,0,1,.073-.457c.072-.083.288-.076.428-.056.085.012.159.123.231.2l3.67,3.671q.165.188.312.39ZM8.428,29.451a1.782,1.782,0,0,1-.195.322q-1.4,1.415-2.812,2.82c-.176.176-.375.24-.57.045a.366.366,0,0,1,.024-.577c.938-.937,1.875-1.884,2.825-2.811a.653.653,0,0,1,.488-.1C8.275,29.164,8.343,29.34,8.428,29.451Zm18.5.091c.013-.384.314-.544.576-.386a1.108,1.108,0,0,1,.2.181q1.373,1.372,2.744,2.745a.365.365,0,0,1,.016.55.353.353,0,0,1-.545-.01c-.109-.1-.212-.208-.317-.313q-1.227-1.227-2.451-2.451a2.189,2.189,0,0,1-.228-.316ZM2.319,35.978a2.806,2.806,0,0,1-.41,0c-.22-.032-.381-.179-.323-.393a.567.567,0,0,1,.343-.337,2.779,2.779,0,0,1,.678-.017c.26,0,.425.117.42.382s-.18.375-.433.372H2.32Zm30.656-.747c.125,0,.273-.041.37.011.13.072.31.217.306.327a.5.5,0,0,1-.274.387,2.07,2.07,0,0,1-.845,0,.5.5,0,0,1-.288-.373c0-.127.187-.272.325-.344.108-.056.268-.011.4-.011l0,0Zm-7.037-9.353a.483.483,0,1,1,.5-.5A.5.5,0,0,1,25.938,25.878ZM11.677,33.723a.484.484,0,1,1-.31-.44.481.481,0,0,1,.31.44Z" fill="#262626"/>
    <path d="M31.078,1.561c.072-.007.13-.018.185-.018h1.662c-.106.325-.2.624-.3.92-.18.542-.37,1.082-.543,1.625-.1.329.044.54.39.545.546.009,1.094,0,1.715,0L31.263,9.276l-.072-.016c.05-.323.095-.649.15-.97.124-.708.253-1.416.38-2.125.072-.388-.073-.567-.461-.572-.423-.006-.845,0-1.328,0l1.146-4.032ZM5.191,4.634,2.235,9.321,2.175,9.3l.375-2.18c.054-.316.12-.63.168-.946.063-.42-.072-.573-.492-.577s-.84,0-1.3,0c.342-1.2.666-2.368,1.01-3.528.186-.637.02-.509.7-.522.389-.007.778,0,1.168,0a.649.649,0,0,1,.108.028c-.05.159-.1.318-.148.474-.216.639-.433,1.277-.643,1.916-.162.484-.033.669.466.672s1.009,0,1.6,0Zm7.445,10.99a1.921,1.921,0,0,1-1.045-1.231.549.549,0,0,1,.084-.343,2.767,2.767,0,0,0,.424-1.357,1.677,1.677,0,0,0-.433-1.163.77.77,0,0,1-.2-.793,5.681,5.681,0,0,1,1.787-3.393A6.1,6.1,0,0,1,16.5,6a11.2,11.2,0,0,1,2.909.073,1.6,1.6,0,0,1,1.352,1.4c.053.5.114.548.607.594a2.154,2.154,0,0,1,1.841,1.2,11.733,11.733,0,0,1,.609,1.875c.024.086-.072.226-.144.316a1.966,1.966,0,0,0-.3,2.063c.093.243.34.432.223.755a2.082,2.082,0,0,1-.892,1.173,2.334,2.334,0,0,1-.03-.26c0-.86,0-1.719,0-2.578,0-.227-.047-.41-.279-.494a2.231,2.231,0,0,1-1.154-1.081c-.227-.394-.405-.818-.6-1.232-.148-.323-.4-.417-.649-.2a7.383,7.383,0,0,1-3.032,1.463c-1.233.337-2.49.584-3.74.85-.523.111-.585.155-.585.687l0,3.011Z" fill="#197aff"/>
    <path d="M14.7,14.646c-.083-.072-.241-.152-.25-.244a.419.419,0,0,1,.16-.35,9.5,9.5,0,0,1,1.267-.4.391.391,0,0,1,.34.178.374.374,0,0,1-.136.353c-.431.171-.88.3-1.38.461Zm5.924.005c-.51-.166-.968-.3-1.411-.474a.283.283,0,0,1,.17-.527,11.686,11.686,0,0,1,1.335.409.368.368,0,0,1,.144.328c-.019.1-.157.179-.238.264ZM14.834,15.81a.55.55,0,0,1,.511-.577.58.58,0,0,1,.5.6.54.54,0,0,1-.524.56.523.523,0,0,1-.487-.583Zm5.639.014a.526.526,0,0,1-.5.577.542.542,0,0,1-.511-.577.579.579,0,0,1,.511-.586.555.555,0,0,1,.5.586Z" fill="#262626"/></g>
</svg>