<svg xmlns="http://www.w3.org/2000/svg" width="29" height="38" viewBox="0 0 29 38"><path d="M12.5,9h-6V7.5l.5-4,3-2,3.5-1,4,.5A26.977,26.977,0,0,1,20,2.5c1.2.8,1.833,3,2,4V9H19.5l-4-2Z" fill="#197aff"/><path d="M12.246.039c-.1.016-.441.082-.751.147A7.374,7.374,0,0,0,6.467,4.159,6.048,6.048,0,0,0,5.808,7.3L5.772,8.713l-.4.35a2.051,2.051,0,0,0-.75,1.442c-.051.441-.059.454-.24.406-.142-.037-.219-.141-.318-.431A2.11,2.11,0,0,0,1.143,9.227,2.644,2.644,0,0,0,.2,10.235a6.359,6.359,0,0,0-.09,2.759,5.688,5.688,0,0,1,.271.967,9.41,9.41,0,0,0,4.86,6.431,8.027,8.027,0,0,0,1.971.749l.713.2.038,7.682c.021,4.225.065,7.724.1,7.775.048.074-.556.093-2.933.093-2.909,0-3,0-3.158.151a.579.579,0,0,0,0,.811C2.136,38,2.156,38,15.367,38H28.6l.2-.154a.5.5,0,0,0,0-.806c-.193-.15-.275-.154-3.3-.154H22.4l.1-.278a2.12,2.12,0,0,0-.385-2.008,2.32,2.32,0,0,0-1.212-.683h-.173v-4.11c0-4.046,0-4.113-.156-4.306a.57.57,0,0,0-.82-.047c-.135.133-.15.247-.15,1.114v.965H9.1l-.021-3.45c-.025-4.063.077-3.682-1.043-3.9a7.646,7.646,0,0,1-4.239-2.26A7.355,7.355,0,0,1,2.2,15.8a9.918,9.918,0,0,1-.746-2.2l-.045-.325H3.307l.046.2a7.067,7.067,0,0,0,.983,2.227.472.472,0,0,0,.468.241c.52,0,.7-.393.418-.893a7.729,7.729,0,0,1-.664-1.431l-.1-.344.262-.153.262-.153.271.235a2.358,2.358,0,0,0,1.257.545l.377.049.255.56A6.683,6.683,0,0,0,9.24,17a1.5,1.5,0,0,1,.376.306c.007.2-1.5-.105-2.251-.458-.59-.276-.7-.281-.942-.046a.5.5,0,0,0,.04.807,6.436,6.436,0,0,0,3.089.866c.537,0,.542,0,.828-.308l.288-.308.546.155c.3.085.654.176.785.2a.356.356,0,0,1,.321.291,2.148,2.148,0,0,0,3.9.05c.145-.321.162-.332.887-.572l.739-.244.375.4a5.245,5.245,0,0,1,1.139,1.935,5.515,5.515,0,0,1,.233,1.958c.032,1.206.053,1.38.177,1.5a.572.572,0,0,0,.811-.056c.141-.176.156-.3.156-1.227,0-.762.025-1.038.094-1.057a9.7,9.7,0,0,0,5.469-3.7,10.217,10.217,0,0,0,1.617-3.862,1.433,1.433,0,0,1,.19-.568c.122-.155.139-.318.137-1.3a3.187,3.187,0,0,0-.154-1.454,2.088,2.088,0,0,0-1.507-1.266,2.133,2.133,0,0,0-2.41,1.536c-.07.256-.121.314-.3.34-.2.029-.211.018-.212-.272A2.056,2.056,0,0,0,22.8,8.973l-.264-.161v-1.1c0-1-.014-1.115-.156-1.293a.57.57,0,0,0-.821-.047c-.136.135-.15.247-.15,1.235V8.7l-.995-.042a5.659,5.659,0,0,1-2.621-.621,4.656,4.656,0,0,1-1.641-1.462c-.44-.7-.851-.731-1.249-.107a4.809,4.809,0,0,1-2.332,1.847,9.484,9.484,0,0,1-3.6.364H6.9l.029-1.318A4.8,4.8,0,0,1,7.2,5.335,5.524,5.524,0,0,1,8.748,2.922a5.887,5.887,0,0,1,2.906-1.651,21.5,21.5,0,0,1,5.06.008A6.366,6.366,0,0,1,20.47,4.009c.409.677.469.732.795.732.5,0,.652-.412.359-.987A7.92,7.92,0,0,0,18.942,1,8.061,8.061,0,0,0,16.277.068,39.253,39.253,0,0,0,12.246.039Zm3.835,8.146a6.312,6.312,0,0,0,3.887,1.579l.626.049-.03,1.492a5.523,5.523,0,0,1-.23,2.086A5.749,5.749,0,0,1,17,16.859a7.821,7.821,0,0,1-3.222.337,6.483,6.483,0,0,1-2.1-.2,5.582,5.582,0,0,1-3.417-2.862,5.439,5.439,0,0,1-.579-2.906L7.648,9.805l2.018-.034a10.1,10.1,0,0,0,2.618-.194,6.429,6.429,0,0,0,2.94-1.688,1.147,1.147,0,0,1,.231-.252A7.337,7.337,0,0,1,16.082,8.185ZM6.554,11.218c.017.786.029,1.432.027,1.436a1.912,1.912,0,0,1-.244-.057c-.388-.1-.569-.434-.609-1.107-.049-.83.03-1.238.286-1.491a.708.708,0,0,1,.361-.211C6.516,9.789,6.524,9.857,6.554,11.218ZM22.263,9.987c.265.262.29.39.26,1.363l-.026.828-.245.217a.844.844,0,0,1-.394.217c-.143,0-.149-.053-.149-1.411V9.789h.177A.676.676,0,0,1,22.263,9.987Zm-19.645.306a1.255,1.255,0,0,1,.448.991c.05.541.184.672.734.717.227.019.412.063.412.1a9.219,9.219,0,0,1-1.539.065H1.132v-.657c0-.56.025-.695.17-.909A.917.917,0,0,1,2.618,10.293Zm24.077-.015c.331.227.42.482.42,1.2v.687H25.576a6.561,6.561,0,0,1-1.539-.074c0-.041.167-.074.371-.074.563,0,.768-.208.835-.847a1.071,1.071,0,0,1,.23-.688A.925.925,0,0,1,26.694,10.277Zm-16.216.275a1.333,1.333,0,0,0-.03,1.542.565.565,0,0,0,.747,0c.126-.125.15-.247.15-.774,0-.587-.012-.635-.2-.78A.442.442,0,0,0,10.478,10.553Zm6.608.013c-.163.161-.184.246-.184.746s.021.584.184.746a.5.5,0,0,0,.758,0c.163-.161.184-.246.184-.746s-.021-.584-.184-.746a.485.485,0,0,0-.758,0Zm-2.99.491a.464.464,0,0,0-.2.445c0,.233-.028.292-.137.292-.2,0-.464.311-.464.546,0,.521.75.753,1.284.4s.61-1.52.093-1.752A.442.442,0,0,0,14.1,11.057Zm9.441,2.072c.19.094.209.135.172.369a5.218,5.218,0,0,1-.393.963,5.355,5.355,0,0,1-3.84,2.823c-.339.062-.448.058-.528-.021s-.035-.153.3-.427a6.5,6.5,0,0,0,1.869-2.405l.293-.618.394-.051a2.015,2.015,0,0,0,1.216-.548c.122-.128.24-.224.263-.212Zm-11.483.3a1.392,1.392,0,0,0,.046,1.247,2.278,2.278,0,0,0,3.545.758A2.426,2.426,0,0,0,16.353,14c.037-.35.02-.43-.117-.565a.583.583,0,0,0-.986.384,1.162,1.162,0,0,1-1.274,1.054,1.131,1.131,0,0,1-.944-1.042,1.073,1.073,0,0,0-.168-.424A.646.646,0,0,0,12.054,13.432Zm14.76-.061a8.914,8.914,0,0,1-.581,1.959A8.4,8.4,0,0,1,21.52,19.8c-1,.359-.99.358-1.052.07a6.05,6.05,0,0,0-.345-.87c-.161-.343-.292-.631-.292-.641a1.19,1.19,0,0,1,.282-.071,6.412,6.412,0,0,0,3.114-1.808,6.671,6.671,0,0,0,1.683-3.112c.017-.068.274-.093.965-.093S26.815,13.3,26.814,13.371ZM14.953,18.434a1.055,1.055,0,0,1-1.28.041l-.188-.145.779,0C14.936,18.327,15.031,18.341,14.953,18.434Zm-.095,2.122a4.216,4.216,0,0,0-1.618.748l-.4.3-.539-.341c-.914-.578-1.284-.6-1.664-.09-.147.2-.157.3-.157,1.707,0,1.657.034,1.795.492,1.982.314.128.608.048,1.231-.336a3.274,3.274,0,0,1,.635-.334,1.529,1.529,0,0,1,.435.259,3.944,3.944,0,0,0,1.615.72,3.291,3.291,0,0,0,3.294-1.521,2.248,2.248,0,0,0,.06-1.4A3.164,3.164,0,0,0,14.858,20.556Zm1.57,1.343c.523.246.774.56.774.965,0,.54-.441.936-1.274,1.147a2.184,2.184,0,0,1-2.068-.522,1.363,1.363,0,0,0-1.019-.428,1.427,1.427,0,0,0-.768.231,3.277,3.277,0,0,1-.456.231,2.423,2.423,0,0,1-.047-.668,4.2,4.2,0,0,1,.027-.668c.015,0,.254.117.531.26a2.459,2.459,0,0,0,.675.26,1.864,1.864,0,0,0,1.051-.463,2.35,2.35,0,0,1,1.12-.571A2.3,2.3,0,0,1,16.428,21.9Zm-.63.474a.6.6,0,0,0-.143.765.557.557,0,1,0,.143-.765Zm3.807,6.681v.408H9.092v-.817H19.606Zm-7.885,1.93v.408H9.092v-.817H11.72Zm7.885,0v.408H16.9v-.817h2.7Zm-3.815,2.84a15.7,15.7,0,0,0,.12,2.9l.1.167h-.649c-.589,0-.644-.012-.594-.13a2.085,2.085,0,0,0-1.511-2.841l-.406-.083V31.1h2.92Zm-4.07-.909v.408H9.092v-.817H11.72Zm7.885,0v.408H16.9v-.817h2.7Zm-7.771,1.766c.143.226.181.241.713.28.493.036.9.153.9.258,0,.019-.98.035-2.178.035H9.092v-.817l1.3,0,1.3,0Zm7.771-.146c0,.222.333.4.817.443a1.212,1.212,0,0,1,.6.158c.108.107-.067.118-2,.118H16.9v-.817h1.352C19.326,34.437,19.606,34.457,19.606,34.535Zm-5.95,1.92a.825.825,0,0,1-.237.241c-.193.143-.326.154-1.994.175l-1.787.022L9.4,36.7a.777.777,0,0,1-.236-.264,17.667,17.667,0,0,1,2.259-.068A8.155,8.155,0,0,1,13.656,36.455Zm7.659,0a.9.9,0,0,1-.28.26c-.239.16-.314.167-1.857.167-1.706,0-1.947-.042-2.126-.372-.079-.146-.053-.148,2.107-.148C20.874,36.367,21.339,36.387,21.315,36.459Z" fill-rule="evenodd"/></svg>