<svg xmlns="http://www.w3.org/2000/svg" width="42" height="40" viewBox="0 0 42 40"><path d="M22.5,19.5h-4l-1-1.5.5-2,4.5-.5,1.5,1,.5,2Z" fill="#197aff"/><path d="M9.876.106c-.352.112-4.848,2.608-5.043,2.8a.612.612,0,0,0,.107.833A.777.777,0,0,0,5.3,3.93c.074,0,1.158-.573,2.408-1.273S10.1,1.343,10.238,1.294a1.158,1.158,0,0,1,1.485,1.134A37.519,37.519,0,0,1,9.695,9.264c-1.444,3.657-2.942,5.829-4.021,5.829-1.53,0-3.642-2.972-4.338-6.106A3.108,3.108,0,0,1,2.9,5.366c.783-.447.939-.6.939-.906A.575.575,0,0,0,3.3,3.848a5.089,5.089,0,0,0-1.911,1.1A4.281,4.281,0,0,0,.1,9.1c.75,3.668,3.214,7.037,5.272,7.207l.456.038-.052.5a20.918,20.918,0,0,0-.06,3.58c.074.486.138.654.3.8a.468.468,0,0,0,.638.094c.325-.148.4-.416.29-1.044a17.2,17.2,0,0,1,.127-3.73l.113-.719.552-.585c1.544-1.636,3.127-4.981,4.385-9.263l.47-1.6.439-.265a10.468,10.468,0,0,1,7.371-.963,2.128,2.128,0,0,0,1.191,0,10.47,10.47,0,0,1,7.371.963l.44.265.317,1.108c1.282,4.485,2.952,8.075,4.533,9.751l.555.588.113.719c.062.4.138,1.292.167,1.992a7.052,7.052,0,0,1-.084,1.95,12.011,12.011,0,0,1-2.626,4.781,35.128,35.128,0,0,1-3.993,3.91c-.816.648-1.032.861-1.053,1.043a.588.588,0,0,0,.885.589A21.725,21.725,0,0,0,30.933,28.6a21.469,21.469,0,0,0,4.605-5.915,6.345,6.345,0,0,0,.773-3.447c0-.722-.027-1.669-.065-2.1l-.068-.789.452-.038c2.068-.171,4.593-3.651,5.275-7.267a4.211,4.211,0,0,0-1.337-4.126,14.656,14.656,0,0,0-3.477-1.97.66.66,0,0,0-.407.164.653.653,0,0,0-.021.836c.079.068.775.478,1.546.912a7.954,7.954,0,0,1,1.752,1.168,3.128,3.128,0,0,1,.705,2.961,11.6,11.6,0,0,1-2.626,5.168c-.9.922-1.751,1.171-2.392.7-1.234-.9-2.729-3.654-4.012-7.4A29.949,29.949,0,0,1,30.28,2.391a1.18,1.18,0,0,1,1.258-1.139,7.966,7.966,0,0,1,1.6.759c1.778.995,1.682.953,1.949.851a.542.542,0,0,0,.262-.931A21.239,21.239,0,0,0,32.094.1a2.281,2.281,0,0,0-2.236.532,2.121,2.121,0,0,0-.79,1.551,3.7,3.7,0,0,1-.06.515c-.01,0-.292-.113-.625-.251a12.593,12.593,0,0,0-6.868-.535,2,2,0,0,1-1.048,0,12.261,12.261,0,0,0-6.876.551c-.317.131-.585.238-.595.238a3.906,3.906,0,0,1-.061-.53A2.4,2.4,0,0,0,9.876.106Zm4.844,7.437a3.8,3.8,0,0,0-2.3,1.1.675.675,0,0,0,.07.775c.278.23.538.2,1.034-.134a3.533,3.533,0,0,1,3.788,0c.394.263.534.316.729.273.294-.065.4-.183.468-.525.046-.23.012-.3-.281-.579A4.53,4.53,0,0,0,14.721,7.543Zm11.167,0a3.8,3.8,0,0,0-2.3,1.1.675.675,0,0,0,.07.775c.278.23.538.2,1.034-.134a3.533,3.533,0,0,1,3.788,0c.394.263.534.316.729.273.294-.065.4-.183.468-.525.046-.23.012-.3-.281-.579A4.53,4.53,0,0,0,25.888,7.543ZM14.042,12.671a2.421,2.421,0,0,0-1.154.6.561.561,0,0,0-.09.864c.228.29.538.279,1.047-.037a2.209,2.209,0,0,1,2.346.048c.4.271.727.267.946-.011.251-.318.216-.583-.116-.9A3.615,3.615,0,0,0,14.042,12.671Zm12.053,0a4.08,4.08,0,0,0-.8.329c-.605.355-.748.731-.431,1.134.231.294.539.279,1.069-.05a1.516,1.516,0,0,1,1.1-.267,1.516,1.516,0,0,1,1.1.267c.535.333.838.344,1.076.042C29.919,13.233,27.736,12.215,26.095,12.675Zm-6.078,2.432a4.311,4.311,0,0,0-2.291.608,2.931,2.931,0,0,0-.636,2.755c.289.993.816,1.39,2.455,1.849l.8.224v3l-.308.082A16.516,16.516,0,0,1,17.553,24a5.815,5.815,0,0,1-2.687-.371c-1.237-.572-2.293-2.081-2.986-4.266-.351-1.106-.672-1.375-1.172-.982-.29.228-.283.552.034,1.5a9.046,9.046,0,0,0,2.907,4.472c.539.391.552.409,1.031,1.373a8.206,8.206,0,0,1,.879,3.645l.048,1.184-.321-.2a25.135,25.135,0,0,1-4.264-3.539,19.27,19.27,0,0,1-2.636-3.241c-.654-1-.823-1.119-1.262-.892a.568.568,0,0,0-.289.693,9.284,9.284,0,0,0,.609,1.011,25.59,25.59,0,0,0,7.907,7.471l.221.138.025,2.407.025,2.407.31.626a5.04,5.04,0,0,0,3.238,2.375,9.106,9.106,0,0,0,3.66,0,5.04,5.04,0,0,0,3.238-2.375l.31-.626.046-4.314.046-4.314.221-.819a11.571,11.571,0,0,1,1.143-2.592,3.163,3.163,0,0,1,.474-.38,8.076,8.076,0,0,0,2.389-3.1,8.4,8.4,0,0,0,.8-2.5.58.58,0,0,0-.99-.386,4.441,4.441,0,0,0-.377.94,9.373,9.373,0,0,1-1.2,2.6,3.938,3.938,0,0,1-2.974,2.011,12.1,12.1,0,0,1-3.986-.337l-.308-.082v-3l.8-.224a3.673,3.673,0,0,0,2.069-1.046c.874-1.206.536-3.27-.619-3.781A9,9,0,0,0,20.017,15.107Zm2.258,1.26c.933.076,1.189.183,1.364.569a1.542,1.542,0,0,1-.335,1.808,9.628,9.628,0,0,1-2.276.617A8.57,8.57,0,0,1,18.85,18.8a.754.754,0,0,1-.5-.5,1.77,1.77,0,0,1,.021-1.368.628.628,0,0,1,.526-.44,11.244,11.244,0,0,1,2.4-.2C21.515,16.308,21.959,16.341,22.275,16.367Zm-.41,8.492A12.533,12.533,0,0,0,25,25.226l1.163,0-.126.287c-.07.158-.242.641-.383,1.073l-.256.786-.367-.232A4.988,4.988,0,0,0,21.77,26.5c-.355.057-.7.1-.768.1s-.413-.047-.768-.1a4.988,4.988,0,0,0-3.258.642l-.366.232-.256-.786c-.141-.432-.313-.915-.382-1.073l-.126-.287,1.2-.007a12.687,12.687,0,0,0,3.338-.431,2.549,2.549,0,0,1,.7-.119C21.152,24.692,21.5,24.776,21.864,24.859ZM20.033,27.7l.3.05.025,3.224c.023,3.035.034,3.234.181,3.4a.687.687,0,0,0,.919,0c.147-.163.158-.361.181-3.4l.025-3.228.427-.052c1.291-.159,2.9.606,3.053,1.453.027.149.039,1.878.025,3.842-.028,4.054,0,3.889-.728,4.6A4.8,4.8,0,0,1,21,38.766a4.76,4.76,0,0,1-3.487-1.232c-.708-.7-.7-.644-.7-4.77a21.408,21.408,0,0,1,.113-3.823C17.279,28.121,18.826,27.5,20.033,27.7Z" fill-rule="evenodd"/></svg>