<svg xmlns="http://www.w3.org/2000/svg" width="156" height="24" fill="none"><g fill="#213786" clip-path="url(#a)"><path d="M20.003 3.428a1.957 1.957 0 0 0-1.38.563 1.923 1.923 0 0 0-.568 1.367v10.607a1.91 1.91 0 0 0 .569 1.367 1.943 1.943 0 0 0 1.379.563v.481h-7.797v-.48a1.958 1.958 0 0 0 1.375-.568c.365-.361.57-.851.57-1.363V7.151l-3.543 11.225H6.651L3.115 7.151v8.814c0 .51.205 1 .569 1.361.364.362.857.566 1.372.57v.48H0v-.48a1.961 1.961 0 0 0 1.376-.567c.365-.362.57-.852.572-1.364V5.358c0-1.041-.702-1.795-1.948-1.93v-.481h7.786v.481c-1.07 0-1.673.871-1.343 1.93l3.543 11.265 3.563-11.265c.35-1.12-.332-1.93-1.343-1.93v-.481h7.797v.481ZM32.331 16.044c-.409 1.742-1.319 2.585-3.055 2.585-1.207 0-2.102-.83-2.374-1.93-.954 1.137-2.005 1.91-3.447 1.91-1.79 0-2.822-.984-2.822-2.585 0-2.956 4.71-3.221 6.183-3.683v-1.45c0-3.298-4.03-2.817-3.269-.848.09.167.164.34.22.52a1.259 1.259 0 0 1-.582 1.29 1.289 1.289 0 0 1-.468.177 1.475 1.475 0 0 1-1.363-.58 1.734 1.734 0 0 1-.233-1.407c.679-2.526 5.08-3.202 7.552-1.62 1.051.675 1.557 1.851 1.557 3.376v3.24c0 2.76 1.422 2.142 2.004.966l.097.039Zm-5.515-.096v-2.914c-1.673.753-2.783 1.409-2.783 2.374 0 .906.526 1.562 1.48 1.446.336-.04.824-.385 1.303-.906ZM39.867 7.789c1.978.577 2.939 2.082 2.939 3.607 0 1.96-1.596 3.877-4.886 3.877-.48.006-.96-.04-1.431-.135-1.616 1.06-.565 1.638-.08 1.716 1.344.218 2.902.174 3.856.25 2.005.155 3.308.85 3.387 2.586.136 2.564-2.765 3.779-5.86 3.779-3.64 0-4.653-1.137-4.836-1.986-.292-1.157.37-2.198 1.363-2.122a1.284 1.284 0 0 1 .89.424 1.261 1.261 0 0 1 .317.927 1.935 1.935 0 0 1-.156.54c-.292.636-.156 1.795 2.55 1.795 2.14 0 3.503-1.41 3.446-2.277-.099-1.333-2.024-1.139-3.466-1.198-1.343-.056-2.92-.017-3.957-.731a1.591 1.591 0 0 1-.752-1.562c.137-.965 1.207-1.815 2.258-2.45-1.596-.695-2.354-2.026-2.354-3.416 0-1.96 1.576-3.877 4.866-3.877.47-.006.94.04 1.4.135 1.1-1.117 2.377-1.677 3.368-1.677 1.306 0 1.978 1.35 1.19 2.16-.605.598-1.54.436-1.909-.424-.246-.481-.936-1.002-2.143.059Zm-.44 3.607c0-1.775-.408-2.895-1.459-2.895-1.05 0-1.46 1.09-1.46 2.875 0 1.786.407 2.932 1.46 2.932s1.45-1.12 1.45-2.912h.01ZM60.343 15.195l.174.078c-.719 2.063-2.49 3.317-4.396 3.317-3.095 0-5.353-2.295-5.353-5.401a5.494 5.494 0 0 1 1.556-3.921 5.596 5.596 0 0 1 3.893-1.692c2.667-.116 4.225.85 4.517 2.354a1.843 1.843 0 0 1-.351 1.427 1.355 1.355 0 0 1-1.343.5 1.29 1.29 0 0 1-.792-.568 1.27 1.27 0 0 1-.162-.956c.052-.188.138-.365.255-.523.642-1.06-.78-1.542-1.908-1.117-.701.25-2.24 1.137-2.24 3.897 0 2.487 1.266 4.302 3.33 4.223 1.088-.041 2.158-.422 2.82-1.618ZM81.347 3.429a1.955 1.955 0 0 0-1.38.563 1.918 1.918 0 0 0-.568 1.366v10.608a1.909 1.909 0 0 0 .569 1.366 1.937 1.937 0 0 0 1.379.564v.48H73.56v-.48a1.96 1.96 0 0 0 1.375-.567c.365-.362.57-.852.57-1.363V7.15l-3.54 11.226h-3.957L64.47 7.15v8.815c.001.511.207 1.001.572 1.363.364.362.86.565 1.376.567v.48h-5.056v-.48a1.96 1.96 0 0 0 1.373-.569c.364-.361.569-.85.57-1.361V5.358c0-1.04-.701-1.794-1.948-1.93v-.48h7.788v.48c-1.073 0-1.675.872-1.345 1.93l3.543 11.266 3.561-11.266c.35-1.12-.332-1.93-1.343-1.93v-.48h7.786v.48ZM93.689 16.044c-.409 1.742-1.32 2.585-3.058 2.585-1.207 0-2.101-.83-2.374-1.93-.954 1.137-2.004 1.91-3.446 1.91-1.79 0-2.823-.984-2.823-2.585 0-2.951 4.71-3.221 6.19-3.683v-1.45c0-3.298-4.029-2.817-3.269-.848.09.167.164.34.22.52a1.262 1.262 0 0 1-.582 1.29 1.29 1.29 0 0 1-.468.177 1.476 1.476 0 0 1-1.363-.58 1.732 1.732 0 0 1-.233-1.407c.682-2.526 5.08-3.202 7.552-1.62 1.051.675 1.557 1.851 1.557 3.376v3.24c0 2.76 1.422 2.142 2.004.966l.093.039Zm-5.51-.096v-2.914c-1.674.753-2.784 1.409-2.784 2.374 0 .906.526 1.562 1.48 1.446.332-.04.828-.385 1.303-.906ZM103.286 15.214c0 2.296-2.396 3.485-4.693 3.53-1.888.02-3.717-.753-4.126-2.373-.252-.982.39-2.024 1.383-1.908.88.115 1.284.945.855 1.812-.466.985.701 1.427 1.908 1.427.954 0 2.141-.52 2.141-1.447 0-1.089-1.732-1.542-3.517-2.121-1.785-.58-2.693-1.719-2.693-3.222 0-2.68 2.377-3.376 4.302-3.393 1.851-.02 3.603.597 3.932 1.986.233.965-.409 2.026-1.4 1.891-.857-.098-1.286-.926-.857-1.795.758-1.561-3.563-1.407-3.563.218 0 .695.272.714 3.796 2.006 1.752.632 2.532 1.982 2.532 3.39ZM113.251 15.214c0 2.296-2.396 3.485-4.693 3.53-1.888.02-3.717-.753-4.126-2.373-.253-.982.389-2.024 1.383-1.908.879.115 1.283.945.855 1.812-.466.985.701 1.427 1.908 1.427.954 0 2.141-.52 2.141-1.447 0-1.089-1.733-1.542-3.518-2.121-1.784-.58-2.692-1.719-2.692-3.222 0-2.68 2.376-3.376 4.302-3.393 1.851-.02 3.602.597 3.932 1.986.235.965-.409 2.026-1.4 1.891-.857-.098-1.286-.926-.857-1.795.758-1.561-3.563-1.407-3.563.218 0 .695.272.714 3.796 2.006 1.751.632 2.532 1.982 2.532 3.39ZM125.962 16.044c-.409 1.742-1.319 2.585-3.055 2.585-1.207 0-2.102-.83-2.374-1.93-.954 1.137-2.007 1.91-3.447 1.91-1.792 0-2.822-.984-2.822-2.585 0-2.951 4.71-3.221 6.19-3.683v-1.45c0-3.298-4.03-2.817-3.271-.848.09.166.164.34.22.52a1.274 1.274 0 0 1-.219.95 1.278 1.278 0 0 1-.832.516 1.474 1.474 0 0 1-1.363-.579 1.738 1.738 0 0 1-.249-1.405c.682-2.526 5.083-3.202 7.553-1.62 1.053.675 1.558 1.851 1.558 3.376v3.239c0 2.76 1.421 2.14 2.005.964l.106.04Zm-5.506-.096v-2.915c-1.673.754-2.783 1.41-2.783 2.375 0 .906.525 1.561 1.479 1.446.328-.04.816-.386 1.304-.906ZM133.494 7.789c1.978.577 2.941 2.082 2.941 3.607 0 1.96-1.598 3.877-4.886 3.877a6.797 6.797 0 0 1-1.44-.135c-1.618 1.06-.565 1.638-.079 1.716 1.343.218 2.901.174 3.853.25 2.007.155 3.31.85 3.387 2.586.137 2.564-2.763 3.779-5.858 3.779-3.64 0-4.653-1.137-4.846-1.986-.293-1.157.369-2.198 1.362-2.122a1.282 1.282 0 0 1 .89.424 1.26 1.26 0 0 1 .317.926 1.925 1.925 0 0 1-.156.54c-.292.637-.156 1.796 2.55 1.796 2.141 0 3.504-1.41 3.444-2.277-.096-1.333-2.024-1.139-3.464-1.198-1.343-.056-2.919-.017-3.957-.731a1.603 1.603 0 0 1-.722-1.562c.136-.965 1.206-1.815 2.257-2.45-1.596-.695-2.354-2.026-2.354-3.416 0-1.96 1.576-3.877 4.866-3.877.471-.006.94.04 1.401.135 1.098-1.117 2.375-1.677 3.367-1.677 1.303 0 1.967 1.35 1.187 2.16-.602.598-1.539.436-1.906-.424-.246-.481-.947-1.002-2.154.059Zm-.44 3.607c0-1.775-.408-2.895-1.459-2.895-1.051 0-1.462 1.09-1.462 2.875 0 1.786.409 2.932 1.462 2.932s1.453-1.12 1.453-2.912h.006ZM147.93 12.591h-6.612c0 2.488 1.266 4.302 3.331 4.224 1.099-.04 2.16-.436 2.822-1.62l.176.078c-.721 2.043-2.493 3.317-4.396 3.317-3.095 0-5.353-2.296-5.353-5.402 0-2.988 2.218-5.632 5.449-5.632 2.825 0 4.669 2.14 4.583 5.035Zm-2.782-.773c0-1.986-.838-3.267-1.889-3.267-1.05 0-1.888 1.292-1.888 3.267h3.777ZM155.227 4.696a4.137 4.137 0 0 1-1.571-.309 4.1 4.1 0 0 1-2.221-2.2A4.037 4.037 0 0 1 151.174 0h-.576a4.046 4.046 0 0 1-1.153 3.506 4.124 4.124 0 0 1-3.718 1.11v.681c.208-.03.418-.046.628-.046.613 0 1.219.135 1.772.397a4.1 4.1 0 0 1 1.425 1.116 4.044 4.044 0 0 1 .813 3.416h.863a4.052 4.052 0 0 1 1.075-3.702 4.139 4.139 0 0 1 3.708-1.155v-.699a4.112 4.112 0 0 1-.784.072ZM49.092 16.93V7.69l-4.38.696.078.464a.793.793 0 0 1 .818.434c.048.1.074.207.076.317v7.33a.947.947 0 0 1-.281.683.966.966 0 0 1-.69.281v.482h5.352v-.482a.971.971 0 0 1-.902-.594.948.948 0 0 1-.071-.37ZM49.595 3.544c-.55 0-1.078-.217-1.467-.603a2.046 2.046 0 0 1-.584-1.772h-.285a2.048 2.048 0 0 1-.584 1.772 2.085 2.085 0 0 1-1.878.561v.344a2.089 2.089 0 0 1 1.93.743c.194.24.331.52.402.818.07.299.073.61.006.91h.44a2.039 2.039 0 0 1 .542-1.874 2.08 2.08 0 0 1 1.876-.584v-.352a2.106 2.106 0 0 1-.398.037Z"/></g><defs><clipPath id="a"><path fill="#fff" d="M0 0h156v23.469H0z"/></clipPath></defs></svg>